<?xml version="1.0" standalone="no"?><!DOCTYPE svg PUBLIC "-//W3C//DTD SVG 1.1//EN" "http://www.w3.org/Graphics/SVG/1.1/DTD/svg11.dtd"><svg t="1562207914259" class="icon" viewBox="0 0 1024 1024" version="1.1" xmlns="http://www.w3.org/2000/svg" p-id="4499" xmlns:xlink="http://www.w3.org/1999/xlink" width="500" height="500"><defs><style type="text/css"></style></defs><path d="M510.251681 216.20311c-140.642181 0-254.656911 114.013707-254.656911 254.654864 0 88.484264 45.137013 166.417217 113.63406 212.05872l0 172.743296 283.856953 0 0-173.951821c67.479881-45.803185 111.818715-123.144668 111.818715-210.849172C764.904499 330.216817 650.891815 216.20311 510.251681 216.20311zM644.995525 608.138594c-15.053857 14.779611-32.537044 27.085892-51.801806 36.264948l0 142.501528L429.118849 786.90507 429.118849 644.505873c-19.352767-9.188266-36.912701-21.531386-52.024887-36.367279-35.354206-34.70236-57.292867-83.023902-57.292867-136.477324 0-105.620549 85.6231-191.243649 191.245695-191.243649 105.619526 0 191.241602 85.622076 191.241602 191.243649C702.288392 525.115716 680.348708 573.436234 644.995525 608.138594z" p-id="4500"></path><path d="M383.660518 895.14426l256.082376 0 0 64.310701-256.082376 0 0-64.310701Z" p-id="4501"></path><path d="M159.527083 690.817466l70.845699-70.845699 45.473373 45.473373-70.845699 70.845699-45.473373-45.473373Z" p-id="4502"></path><path d="M127.675356 384.027373l100.19191 0 0 64.310701-100.19191 0 0-64.310701Z" p-id="4503"></path><path d="M237.572121 128.297685l70.845699 70.845699-45.474097 45.474097-70.845699-70.845699 45.474097-45.474097Z" p-id="4504"></path><path d="M480.059032 63.715137l64.310701 0 0 100.19191-64.310701 0 0-100.19191Z" p-id="4505"></path><path d="M833.361813 172.754197l-70.845699 70.845699-45.474821-45.474821 70.845699-70.845699 45.474821 45.474821Z" p-id="4506"></path><path d="M795.189246 383.51879l100.192933 0 0 64.311725-100.192933 0 0-64.311725Z" p-id="4507"></path><path d="M818.908129 735.802474l-70.846423-70.846423 45.474097-45.474097 70.846423 70.846423-45.474097 45.474097Z" p-id="4508"></path></svg>